<svg xmlns="http://www.w3.org/2000/svg" width="33.109" height="42.219" viewBox="0 0 33.109 42.219">
    <defs><style>
    .rgb-favicon{
        fill:#fff;
    }
    @media (prefers-color-scheme: light) {
        .rgb-favicon{
            fill:#000;
        }
    }
    </style></defs>
    <g transform="translate(0 0)">
    <path class="rgb-favicon" d="M238.049,126.369a11.224,11.224,0,0,1,11.213-11.212l.047,0v6.025l10.578-7.5a16.486,16.486,0,0,0-10.576-3.87l0,0v0a.463.463,0,0,0-.047,0,16.54,16.54,0,0,0-12.61,27.261l4.4-3.1A11.165,11.165,0,0,1,238.049,126.369Z" transform="translate(-232.706 -100.704)"/>
    <path class="rgb-favicon" d="M283.986,137.46l-4.4,3.1A11.193,11.193,0,0,1,271.4,159.41c-.036,0-.071,0-.107,0v-6.025l-10.551,7.473a16.5,16.5,0,0,0,10.545,3.894l.006,0v0c.036,0,.071,0,.107,0a16.542,16.542,0,0,0,12.583-27.293Z" transform="translate(-254.847 -122.534)"/>
    <path class="rgb-favicon" d="M326.088,72.623a1.232,1.232,0,0,0-1.232,1.232,1.307,1.307,0,0,0,.043.31l-4.031.2.066-5.416a1.229,1.229,0,1,0-1.194-.554l-4.369,3.473-2.4-2.935a1.239,1.239,0,1,0-.576-.012l-1.553,4.641c8.516,0,12.069,5.152,12.069,5.152l2.306-3.99a1.232,1.232,0,1,0,.874-2.1Z" transform="translate(-294.404 -66.501)"/>
    </g></svg>