<svg xmlns="http://www.w3.org/2000/svg" width="189.518" height="49.232" viewBox="0 0 189.518 49.232">
    <g id="logo_rgb" data-name="logo rgb" transform="translate(-159.482 -23.994)">
      <g id="Logo_RGB-2" data-name="Logo RGB" transform="translate(159.482 23.994)">
        <g id="Group_17288" data-name="Group 17288" transform="translate(0)">
          <path id="Path_7405" data-name="Path 7405" d="M101.3,75.934A13.088,13.088,0,0,1,114.38,62.86l.055,0v7.027l12.335-8.744a19.223,19.223,0,0,0-12.332-4.513l0,0v0a.544.544,0,0,0-.055,0A19.287,19.287,0,0,0,99.675,88.419l5.128-3.613A13.02,13.02,0,0,1,101.3,75.934Z" transform="translate(-95.074 -46.006)" fill="#fff"/>
          <path id="Path_7406" data-name="Path 7406" d="M143.669,77.821l-5.128,3.62A13.053,13.053,0,0,1,129,103.418c-.042,0-.083,0-.125,0V96.387l-12.3,8.714a19.234,19.234,0,0,0,12.3,4.542l.007.005v-.005c.042,0,.083.005.125.005a19.29,19.29,0,0,0,14.673-31.827Z" transform="translate(-109.69 -60.416)" fill="#fff"/>
          <path id="Path_7407" data-name="Path 7407" d="M172.75,30.566A1.436,1.436,0,0,0,171.313,32a1.545,1.545,0,0,0,.05.362l-4.7.233.077-6.315a1.433,1.433,0,1,0-1.392-.646l-5.1,4.05-2.8-3.422a1.445,1.445,0,1,0-.672-.014l-1.811,5.411c9.931,0,14.074,6.008,14.074,6.008l2.689-4.653a1.437,1.437,0,1,0,1.019-2.449Z" transform="translate(-135.804 -23.426)" fill="#fff"/>
        </g>
        <g id="Group_17289" data-name="Group 17289" transform="translate(48.41 19.17)">
          <path id="Path_7410" data-name="Path 7410" d="M-57.554-4.6V.555h.545V.049h4.29V.54h.561V-4.6Zm.545,4.126v-3.6h4.29v3.6ZM-45.8-1.982a.359.359,0,0,0,.249-.148h6.2v-.553h-6.5Zm17.034-3.511v2.655A3.468,3.468,0,0,1-31.4.735a2.275,2.275,0,0,1,.4.42A3.884,3.884,0,0,0-28.2-2.839V-5.315c.125-.016.179-.054.187-.132ZM-31.8-1.36v-3.6c.125-.016.179-.07.187-.14l-.74-.047V-1.36Zm10.915-3.208a9.945,9.945,0,0,1,2.273,1.082l.3-.49a9.681,9.681,0,0,0-2.32-1.059Zm.638,5.535a.255.255,0,0,0,.109-.179,8.921,8.921,0,0,0,5.512-4.671,3.024,3.024,0,0,1-.506-.319A8.3,8.3,0,0,1-20.668.361ZM-3.237-5.883a5.51,5.51,0,0,1,1,1.1l.288-.241a5.62,5.62,0,0,0-1.02-1.105Zm-1.129.226a5.592,5.592,0,0,1,1,1.105l.288-.249a5.846,5.846,0,0,0-1.02-1.105Zm.794,1.285-.093.047H-6.374c.179-.311.358-.685.514-1.035.1.008.195-.023.218-.1l-.732-.2a7.752,7.752,0,0,1-2.468,3.41,2.523,2.523,0,0,1,.436.35A7.778,7.778,0,0,0-6.686-3.8h2.748A7.211,7.211,0,0,1-7.853.781a1.842,1.842,0,0,1,.4.428A8.047,8.047,0,0,0-3.244-4a.417.417,0,0,0,.117-.117Zm9.833,1.3a.8.8,0,0,0-.8.8.8.8,0,0,0,.8.8.8.8,0,0,0,.8-.8A.8.8,0,0,0,6.261-3.072Zm14.87-2.81a5.511,5.511,0,0,1,1,1.1l.288-.241A5.62,5.62,0,0,0,21.4-6.132ZM20-5.657a5.592,5.592,0,0,1,1,1.105l.288-.249a5.846,5.846,0,0,0-1.02-1.105ZM20.8-4.373l-.093.047H17.994c.179-.311.358-.685.514-1.035.1.008.195-.023.218-.1l-.732-.2a7.752,7.752,0,0,1-2.468,3.41,2.523,2.523,0,0,1,.436.35,7.778,7.778,0,0,0,1.721-1.9H20.43A7.211,7.211,0,0,1,16.514.781a1.842,1.842,0,0,1,.4.428A8.047,8.047,0,0,0,21.123-4a.417.417,0,0,0,.117-.117ZM28.161-4.6V.555h.545V.049H33V.54h.561V-4.6Zm.545,4.126v-3.6H33v3.6Zm11.211-1.51a.359.359,0,0,0,.249-.148h6.2v-.553h-6.5ZM56.951-5.494v2.655A3.468,3.468,0,0,1,54.312.735a2.275,2.275,0,0,1,.4.42,3.884,3.884,0,0,0,2.795-3.994V-5.315c.125-.016.179-.054.187-.132ZM53.914-1.36v-3.6c.125-.016.179-.07.187-.14l-.74-.047V-1.36Zm10.6-.623a.359.359,0,0,0,.249-.148h6.2v-.553h-6.5Z" transform="translate(58.049 23.5)" fill="#fff"/>
          <path id="Path_7409" data-name="Path 7409" d="M-57.381.958l-1.361-2.589h-1.815V.958H-63V-8.4h4.2a4.335,4.335,0,0,1,2.876.861A2.994,2.994,0,0,1-54.9-5.114a3.689,3.689,0,0,1-.427,1.822A2.953,2.953,0,0,1-56.567-2.1L-54.619.958Zm-3.176-4.538h1.775a1.646,1.646,0,0,0,1.154-.374,1.394,1.394,0,0,0,.407-1.081,1.338,1.338,0,0,0-.407-1.048,1.665,1.665,0,0,0-1.154-.367h-1.775Zm14.347-4.965a5.32,5.32,0,0,1,2.582.627A4.7,4.7,0,0,1-41.813-6.2a4.659,4.659,0,0,1,.661,2.456,4.753,4.753,0,0,1-.661,2.482A4.762,4.762,0,0,1-43.628.491a5.231,5.231,0,0,1-2.582.641A5.275,5.275,0,0,1-48.793.5,4.7,4.7,0,0,1-50.608-1.25a4.788,4.788,0,0,1-.661-2.489A4.659,4.659,0,0,1-50.608-6.2a4.7,4.7,0,0,1,1.815-1.722A5.32,5.32,0,0,1-46.211-8.544Zm.027,2.069a2.438,2.438,0,0,0-1.288.36,2.6,2.6,0,0,0-.941.994,2.857,2.857,0,0,0-.347,1.395,2.84,2.84,0,0,0,.354,1.408,2.717,2.717,0,0,0,.941,1,2.371,2.371,0,0,0,1.281.367,2.338,2.338,0,0,0,1.275-.367,2.581,2.581,0,0,0,.914-1,2.976,2.976,0,0,0,.334-1.408A2.948,2.948,0,0,0-44-5.121a2.531,2.531,0,0,0-.914-.994A2.37,2.37,0,0,0-46.184-6.475ZM-37.269-8.4h2.442v7.274h3.964V.958h-6.406Zm10.183,0h2.442v7.274h3.964V.958h-6.406Zm10.183,0h2.442V.958H-16.9Zm13.319,0h2.269V.958H-3.45L-7.694-4.634V.958H-9.976V-8.4h2.149L-3.57-2.765ZM9.376-3.819h2.109V-.1A6.237,6.237,0,0,1,9.649.792a6.911,6.911,0,0,1-2.062.34A5.173,5.173,0,0,1,5.032.5a4.69,4.69,0,0,1-1.8-1.742,4.791,4.791,0,0,1-.654-2.482,4.623,4.623,0,0,1,.674-2.462A4.729,4.729,0,0,1,5.112-7.917a5.531,5.531,0,0,1,2.636-.627,6.031,6.031,0,0,1,2.082.38,5.415,5.415,0,0,1,1.762,1.021L10.2-5.434A3.893,3.893,0,0,0,9.035-6.2a3.315,3.315,0,0,0-1.3-.28,2.569,2.569,0,0,0-1.348.36,2.593,2.593,0,0,0-.948.988,2.846,2.846,0,0,0-.347,1.4A2.911,2.911,0,0,0,5.439-2.3,2.55,2.55,0,0,0,6.4-1.31a2.64,2.64,0,0,0,1.361.36A3.692,3.692,0,0,0,9.376-1.4Zm18.217,0H29.7V-.1a6.237,6.237,0,0,1-1.835.888,6.911,6.911,0,0,1-2.062.34A5.173,5.173,0,0,1,23.249.5a4.69,4.69,0,0,1-1.8-1.742A4.791,4.791,0,0,1,20.8-3.726a4.623,4.623,0,0,1,.674-2.462,4.729,4.729,0,0,1,1.855-1.728,5.531,5.531,0,0,1,2.636-.627,6.031,6.031,0,0,1,2.082.38,5.415,5.415,0,0,1,1.762,1.021L28.42-5.434A3.893,3.893,0,0,0,27.253-6.2a3.315,3.315,0,0,0-1.3-.28,2.569,2.569,0,0,0-1.348.36,2.593,2.593,0,0,0-.948.988,2.846,2.846,0,0,0-.347,1.4A2.911,2.911,0,0,0,23.656-2.3a2.55,2.55,0,0,0,.961.994,2.64,2.64,0,0,0,1.361.36A3.692,3.692,0,0,0,27.593-1.4ZM33.986-8.4h2.442v7.274h3.964V.958H33.986Zm14.641-.147a5.32,5.32,0,0,1,2.582.627A4.7,4.7,0,0,1,53.024-6.2a4.659,4.659,0,0,1,.661,2.456,4.753,4.753,0,0,1-.661,2.482A4.761,4.761,0,0,1,51.209.491a5.231,5.231,0,0,1-2.582.641A5.275,5.275,0,0,1,46.044.5,4.7,4.7,0,0,1,44.229-1.25a4.788,4.788,0,0,1-.661-2.489A4.659,4.659,0,0,1,44.229-6.2a4.7,4.7,0,0,1,1.815-1.722A5.32,5.32,0,0,1,48.626-8.544Zm.027,2.069a2.438,2.438,0,0,0-1.288.36,2.6,2.6,0,0,0-.941.994,2.857,2.857,0,0,0-.347,1.395,2.84,2.84,0,0,0,.354,1.408,2.717,2.717,0,0,0,.941,1,2.371,2.371,0,0,0,1.281.367,2.338,2.338,0,0,0,1.275-.367,2.581,2.581,0,0,0,.914-1,2.976,2.976,0,0,0,.334-1.408,2.948,2.948,0,0,0-.334-1.395,2.531,2.531,0,0,0-.914-.994A2.37,2.37,0,0,0,48.653-6.475ZM63.187.958,61.826-1.631H60.011V.958H57.568V-8.4h4.2a4.335,4.335,0,0,1,2.876.861,2.994,2.994,0,0,1,1.021,2.422,3.689,3.689,0,0,1-.427,1.822A2.953,2.953,0,0,1,64-2.1L65.95.958ZM60.011-3.579h1.775a1.646,1.646,0,0,0,1.154-.374,1.394,1.394,0,0,0,.407-1.081,1.338,1.338,0,0,0-.407-1.048,1.665,1.665,0,0,0-1.154-.367H60.011ZM78.108-8.4,74.731-2.031V.958H72.289V-1.964L68.846-8.4h2.442L73.5-4.38,75.666-8.4Z" transform="translate(63 8.544)" fill="#fff"/>
        </g>
      </g>
    </g>
  </svg>